<svg id="layers" xmlns="http://www.w3.org/2000/svg" viewBox="0 0 100 100"><defs><style>.cls-1{fill:#58cdaa;}.cls-2{opacity:0.22;}.cls-3{fill:#1d1d1b;}.cls-4{fill:#3791eb;}.cls-5{opacity:0.31;}.cls-6{fill:#283e76;}</style></defs><g id="square"><path id="Path" class="cls-1" d="M51,96.15A7.31,7.31,0,0,0,56.18,94L90.7,59.08a32.33,32.33,0,0,0,0-45.38,7.29,7.29,0,0,0-10.36,0L45.82,48.6a32.38,32.38,0,0,0,0,45.39A7.29,7.29,0,0,0,51,96.15Z"/><g id="Group" class="cls-2"><g id="Path-2" data-name="Path"><path class="cls-3" d="M84.16,29.34,56.61,65.88A31.22,31.22,0,0,1,37.5,75a31.64,31.64,0,0,1,8.84-27.11S85.53,28,84.16,29.34Z"/></g></g><path id="Path-3" data-name="Path" class="cls-4" d="M32.55,67.31A32.06,32.06,0,0,0,55.24,58L90.15,23.5a7.29,7.29,0,0,0,0-10.36,32.37,32.37,0,0,0-45.39,0L9.85,47.66A7.28,7.28,0,0,0,9.85,58,32,32,0,0,0,32.55,67.31Z"/><g id="Group-2" data-name="Group" class="cls-5"><g id="Path-4" data-name="Path"><path class="cls-3" d="M38,18.71a32.19,32.19,0,0,1,10.08-7,32.62,32.62,0,0,1,7,5.39,7.66,7.66,0,0,1,2.19,5.33c0,2-2.24,6.29-6.54,10.47L25,51.68c-.64.65-8.31.07-11.49-8Z"/></g></g><path id="Path-5" data-name="Path" class="cls-6" d="M14.38,59.62a7.22,7.22,0,0,0,5.09-2.13L53.65,23.31a7.28,7.28,0,0,0,0-10.26A31.43,31.43,0,0,0,9.21,57.5a7.25,7.25,0,0,0,5.17,2.12Z"/></g></svg>