<?xml version="1.0" encoding="UTF-8"?>
<svg width="64px" height="64px" viewBox="0 0 64 64" version="1.1" xmlns="http://www.w3.org/2000/svg" xmlns:xlink="http://www.w3.org/1999/xlink">
    <title>logo-colors-square-64px@3x</title>
    <defs>
        <linearGradient x1="73.3581184%" y1="27.5985073%" x2="22.4655174%" y2="76.3751735%" id="linearGradient-1">
            <stop stop-color="#6CB864" offset="0%"></stop>
            <stop stop-color="#94C12D" offset="100%"></stop>
        </linearGradient>
        <linearGradient x1="92.3311712%" y1="31.8097016%" x2="10.7800698%" y2="66.8503802%" id="linearGradient-2">
            <stop stop-color="#6DB862" offset="16%"></stop>
            <stop stop-color="#86C8C2" offset="77%"></stop>
        </linearGradient>
        <linearGradient x1="59.2483238%" y1="20.3135885%" x2="21.3967523%" y2="94.6156789%" id="linearGradient-3">
            <stop stop-color="#008EB4" offset="0%"></stop>
            <stop stop-color="#46ACBB" offset="27%"></stop>
            <stop stop-color="#72C0C0" offset="46%"></stop>
            <stop stop-color="#83C7C2" offset="56%"></stop>
            <stop stop-color="#85C8C2" offset="100%"></stop>
        </linearGradient>
    </defs>
    <g id="logo-colors-square-64px" stroke="none" stroke-width="1" fill="none" fill-rule="evenodd">
        <g id="Group-2" transform="translate(11.000000, 13.000000)" fill-rule="nonzero">
            <path d="M21.149151,39 C21.9763648,39 22.7697629,38.6680734 23.3554302,38.0774733 L38.0431247,23.2285854 C40.5766166,20.6682809 42,17.1951675 42,13.5736489 C42,9.95213022 40.5766166,6.47901685 38.0431247,3.91871237 C36.8242416,2.69376254 34.8556996,2.69376254 33.6368164,3.91871237 L18.9491219,18.7676003 C13.683626,24.1035956 13.683626,32.7414781 18.9491219,38.0774733 C19.533255,38.6665302 20.3241034,38.9981525 21.149151,39 Z" id="Path" fill="url(#linearGradient-1)"></path>
            <g id="Group" opacity="0.22" style="mix-blend-mode: multiply;" transform="translate(15.000000, 11.000000)" fill="#1D1D1B">
                <g id="Path">
                    <path d="M21.8333333,0.174603175 L9.22666667,16.0285714 C6.88213433,18.2742636 3.78931004,19.6718268 0.48,19.9809524 C-0.220263003,15.6647139 1.28150225,11.2890606 4.52333333,8.2 C4.52333333,8.2 22.4566667,-0.419047619 21.8333333,0.174603175 Z"></path>
                </g>
            </g>
            <path d="M14.5758792,28 C18.1985395,28.0081586 21.6744958,26.5852477 24.2314173,24.0473537 L39.0812304,9.3619049 C40.3062565,8.14320807 40.3062565,6.17496708 39.0812304,4.95627026 C36.5207664,2.42316577 33.0474366,1 29.4256923,1 C25.803948,1 22.3306182,2.42316577 19.7701542,4.95627026 L4.92034112,19.6417191 C3.69321963,20.8607796 3.69321963,22.8314177 4.92034112,24.0504783 C7.4761871,26.5895842 10.9531196,28.0117696 14.5758792,28 Z" id="Path" fill="url(#linearGradient-2)"></path>
            <g id="Group" opacity="0.31" style="mix-blend-mode: multiply;" transform="translate(6.000000, 4.000000)" fill="#1D1D1B">
                <g id="Path">
                    <path d="M10.0342373,2.98301887 C11.2131331,1.74143579 12.6056069,0.746572271 14.1376271,0.0513207547 C15.1804842,0.67107698 16.1389733,1.43603766 16.9871186,2.3254717 C17.5574377,2.92660155 17.8779661,3.74094652 17.8779661,4.59 C17.8779661,5.43679245 16.9627119,7.24264151 15.2115254,9.00679245 L4.71050847,16.8845283 C4.44813559,17.1603774 1.3240678,16.9166038 0.0305084746,13.500566 L10.0342373,2.98301887 Z"></path>
                </g>
            </g>
            <path d="M6.72671812,25 C7.57001173,24.994747 8.37738906,24.6581114 8.97443615,24.0628149 L24.0662572,8.9779859 C25.3112476,7.72614584 25.3112476,5.70437727 24.0662572,4.45253721 C20.6109767,0.718866987 15.3885269,-0.825339173 10.4571387,0.428509116 C5.52575052,1.6823574 1.6763036,5.53317211 0.425911716,10.4633004 C-0.824480172,15.3934287 0.724716671,20.612193 4.46294497,24.0628149 C5.06393875,24.6620148 5.8778566,24.9989707 6.72671812,25 Z" id="Path" fill="url(#linearGradient-3)"></path>
        </g>
    </g>
</svg>